<mxfile host="app.diagrams.net" modified="2024-04-22T14:15:23.791Z" agent="Mozilla/5.0 (X11; Linux x86_64) AppleWebKit/537.36 (KHTML, like Gecko) Chrome/124.0.0.0 Safari/537.36" etag="1" version="14.6.13" type="device">
    <diagram id="ExampleDiagram" name="Page-1">
        <mxGraphModel dx="1082" dy="610" grid="1" gridSize="10" guides="1" tooltips="1" connect="1" arrows="1" fold="1" page="1" pageScale="1" pageWidth="827" pageHeight="1169" math="0" shadow="0">
            <root>
                <mxCell id="0"/>
                <mxCell id="1" parent="0"/>
                <mxCell id="2" value="Vue.js App" style="rounded=1;whiteSpace=wrap;html=1;fillColor=#DAE8FC;" vertex="1" parent="1">
                    <mxGeometry x="180" y="120" width="120" height="60" as="geometry"/>
                </mxCell>
                <mxCell id="3" value="Firebase Auth" style="rounded=1;whiteSpace=wrap;html=1;fillColor=#FFE6CC;" vertex="1" parent="1">
                    <mxGeometry x="20" y="230" width="120" height="60" as="geometry"/>
                </mxCell>
                <mxCell id="4" value="AWS Cognito" style="rounded=1;whiteSpace=wrap;html=1;fillColor=#E1D5E7;" vertex="1" parent="1">
                    <mxGeometry x="330" y="230" width="120" height="60" as="geometry"/>
                </mxCell>
                <mxCell id="5" value="AWS Lambda" style="rounded=1;whiteSpace=wrap;html=1;fillColor=#D5E8D4;" vertex="1" parent="1">
                    <mxGeometry x="180" y="350" width="120" height="60" as="geometry"/>
                </mxCell>
                <mxCell id="6" value="Authenticates User" style="edgeStyle=orthogonalEdgeStyle;exitX=0.5;exitY=1;entryX=0.5;entryY=0;endArrow=block;endFill=1;" edge="1" parent="1" source="2" target="3">
                    <mxGeometry relative="1" as="geometry"/>
                </mxCell>
                <mxCell id="7" value="Validates and generates token" style="edgeStyle=orthogonalEdgeStyle;exitX=1;exitY=0.5;entryX=0;entryY=0.5;endArrow=block;endFill=1;" edge="1" parent="1" source="3" target="4">
                    <mxGeometry relative="1" as="geometry"/>
                </mxCell>
                <mxCell id="8" value="Grants AWS credentials" style="edgeStyle=orthogonalEdgeStyle;exitX=0.5;exitY=1;entryX=0.5;entryY=0;endArrow=block;endFill=1;" edge="1" parent="1" source="4" target="5">
                    <mxGeometry relative="1" as="geometry"/>
                </mxCell>
            </root>
        </mxGraphModel>
    </diagram>
</mxfile>
